<svg xmlns="http://www.w3.org/2000/svg" viewBox="0 0 512 512">
  <defs>
    <linearGradient id="g" x1="0" y1="0" x2="1" y2="1">
      <stop offset="0" stop-color="#6c5ce7"/>
      <stop offset="1" stop-color="#00cec9"/>
    </linearGradient>
  </defs>
  <rect width="512" height="512" rx="110" fill="#0b0d17"/>
  <rect x="14" y="14" width="484" height="484" rx="98" fill="none" stroke="url(#g)" stroke-width="14"/>
  <!-- balão PT (fala) -->
  <path d="M80 130a44 44 0 0 1 44-44h150a44 44 0 0 1 44 44v78a44 44 0 0 1-44 44H176l-56 44v-44h-40z" fill="#6c5ce7" transform="translate(16 20)"/>
  <text x="215" y="205" font-family="Arial, sans-serif" font-size="86" font-weight="800" fill="#fff" text-anchor="middle">PT</text>
  <!-- balão ES (resposta) -->
  <path d="M432 296a44 44 0 0 0-44-44H238a44 44 0 0 0-44 44v78a44 44 0 0 0 44 44h98l56 44v-44h40z" fill="#00cec9" transform="translate(-16 -6)"/>
  <text x="300" y="382" font-family="Arial, sans-serif" font-size="86" font-weight="800" fill="#06251f" text-anchor="middle">ES</text>
</svg>
