<svg width="1200" height="300" viewBox="0 0 1200 300" xmlns="http://www.w3.org/2000/svg">
  <defs>
    <linearGradient id="bg" x1="0%" y1="0%" x2="100%" y2="100%">
      <stop offset="0%" stop-color="#0b0d17"/>
      <stop offset="55%" stop-color="#0d1022"/>
      <stop offset="100%" stop-color="#11142b"/>
    </linearGradient>
    <radialGradient id="glowP" cx="50%" cy="50%" r="50%">
      <stop offset="0%" stop-color="#6c5ce7" stop-opacity="0.30"/>
      <stop offset="100%" stop-color="#6c5ce7" stop-opacity="0"/>
    </radialGradient>
    <radialGradient id="glowC" cx="50%" cy="50%" r="50%">
      <stop offset="0%" stop-color="#00cec9" stop-opacity="0.22"/>
      <stop offset="100%" stop-color="#00cec9" stop-opacity="0"/>
    </radialGradient>
  </defs>

  <rect width="1200" height="300" fill="url(#bg)"/>

  <!-- glows -->
  <circle cx="980" cy="30" r="240" fill="url(#glowP)"/>
  <circle cx="200" cy="300" r="220" fill="url(#glowC)"/>

  <!-- brand pill -->
  <rect x="510" y="34" width="180" height="36" rx="18" fill="rgba(201,169,110,0.10)" stroke="rgba(201,169,110,0.40)" stroke-width="1"/>
  <circle cx="540" cy="52" r="5" fill="#e2c992"/>
  <text x="610" y="58" font-family="Arial, Helvetica, sans-serif" font-size="17" font-weight="700" letter-spacing="2" fill="#e2c992" text-anchor="middle">LANCEPRIME</text>

  <!-- headline -->
  <text x="600" y="124" font-family="Arial, Helvetica, sans-serif" font-size="42" font-weight="800" fill="#f5f5f5" text-anchor="middle">Seu próximo carro</text>
  <text x="600" y="168" font-family="Arial, Helvetica, sans-serif" font-size="42" font-weight="800" fill="#e2c992" text-anchor="middle">tá te esperando aqui</text>

  <!-- speed lines -->
  <g stroke-linecap="round">
    <line x1="372" y1="220" x2="432" y2="220" stroke="#00cec9" stroke-width="3" opacity="0.7"/>
    <line x1="360" y1="240" x2="436" y2="240" stroke="#6c5ce7" stroke-width="3" opacity="0.7"/>
    <line x1="378" y1="260" x2="430" y2="260" stroke="#00cec9" stroke-width="3" opacity="0.6"/>
  </g>

  <!-- carrinho -->
  <g stroke-linejoin="round">
    <path d="M 528 228 L 560 202 Q 564 198 572 198 L 648 198 Q 658 198 664 205 L 700 228 Z" fill="rgba(0,206,201,0.18)" stroke="#e2c992" stroke-width="2.5"/>
    <line x1="612" y1="200" x2="612" y2="228" stroke="#e2c992" stroke-width="2"/>
    <rect x="462" y="226" width="276" height="34" rx="13" fill="rgba(201,169,110,0.12)" stroke="#e2c992" stroke-width="2.5"/>
    <rect x="730" y="236" width="9" height="6" rx="2" fill="#ffffff" opacity="0.9"/>
    <circle cx="525" cy="262" r="20" fill="#0b0d17" stroke="#e2c992" stroke-width="3"/>
    <circle cx="525" cy="262" r="7.5" fill="#c9a96e"/>
    <circle cx="675" cy="262" r="20" fill="#0b0d17" stroke="#e2c992" stroke-width="3"/>
    <circle cx="675" cy="262" r="7.5" fill="#c9a96e"/>
  </g>
</svg>
