<?xml version="1.0" encoding="UTF-8"?>
<svg xmlns="http://www.w3.org/2000/svg" viewBox="0 0 36 36" width="36" height="36">
  <defs>
    <linearGradient id="fg" x1="0%" y1="0%" x2="100%" y2="100%">
      <stop offset="0%" stop-color="#c9a96e"/>
      <stop offset="100%" stop-color="#e2c992"/>
    </linearGradient>
  </defs>
  <rect width="36" height="36" rx="8" fill="url(#fg)"/>
  <path d="M6 22c0-1.1.9-2 2-2h1.2l1.6-4.8C11.1 13.5 12 12 14 12h8c2 0 2.9 1.5 3.2 3.2L27.8 20H29c1.1 0 2 .9 2 2v2h-2.5c-.2 1.1-1.1 2-2.3 2s-2.1-.9-2.3-2H14.1c-.2 1.1-1.1 2-2.3 2s-2.1-.9-2.3-2H6v-2z" fill="#fff"/>
  <circle cx="11.5" cy="24.5" r="1.6" fill="#000" opacity="0.18"/>
  <circle cx="24.5" cy="24.5" r="1.6" fill="#000" opacity="0.18"/>
</svg>
