<?xml version="1.0" encoding="UTF-8"?>
<svg xmlns="http://www.w3.org/2000/svg" viewBox="0 0 200 200" width="200" height="200">
  <defs>
    <linearGradient id="g" x1="0%" y1="0%" x2="100%" y2="100%">
      <stop offset="0%" stop-color="#c9a96e"/>
      <stop offset="100%" stop-color="#e2c992"/>
    </linearGradient>
  </defs>
  <rect width="200" height="200" rx="28" fill="url(#g)"/>
  <g transform="translate(12,50) scale(1.1)">
    <path d="M10 74c0-4.2 3.4-7.6 7.6-7.6h6.6l8.8-26.4C34.6 32.8 40 24 52 24h72c12 0 17.4 8.8 19.2 16.8L149.4 66H164c4.2 0 7.6 3.4 7.6 7.6v7.6H159c-1.1 6-5.6 10.8-11.5 10.8-5.9 0-10.4-4.8-11.5-10.8H75.6c-1.1 6-5.6 10.8-11.5 10.8s-10.4-4.8-11.5-10.8H17.6V81.6z" fill="#ffffff" />
    <circle cx="44" cy="106" r="6" fill="#000000" opacity="0.16" />
    <circle cx="140" cy="106" r="6" fill="#000000" opacity="0.16" />
  </g>
</svg>
